PathFileType	4	(X/Y/Z)	s09c0103.trc
DataRate	CameraRate	NumFrames	NumMarkers	Units	OrigDataRate	OrigDataStartFrame	OrigNumFrames
200	200	5	50	mm	200	1250	2000
Frame#	Time	racr			lacr			c7			jug			rlel			rdr			llel			ldr			s2			lic			ric			lasi			rasi			rpsi			lpsi			rgt			lgt			rth1			rth2			rth3			rth4			rlfc			rmfc			rsh1			rsh2			rsh3			rsh4			rlmal			rmmal			rcal			rtoe			rmt5			lth1			lth2			lth4			lth3			llfc			lmfc			llmal			lmmal			lcal			lmt5			lsh1			lsh2			lsh3			lsh4			ltoe			SBIKE			LBIKE			RBIKE			
		X1	Y1	Z1	X2	Y2	Z2	X3	Y3	Z3	X4	Y4	Z4	X5	Y5	Z5	X6	Y6	Z6	X7	Y7	Z7	X8	Y8	Z8	X9	Y9	Z9	X10	Y10	Z10	X11	Y11	Z11	X12	Y12	Z12	X13	Y13	Z13	X14	Y14	Z14	X15	Y15	Z15	X16	Y16	Z16	X17	Y17	Z17	X18	Y18	Z18	X19	Y19	Z19	X20	Y20	Z20	X21	Y21	Z21	X22	Y22	Z22	X23	Y23	Z23	X24	Y24	Z24	X25	Y25	Z25	X26	Y26	Z26	X27	Y27	Z27	X28	Y28	Z28	X29	Y29	Z29	X30	Y30	Z30	X31	Y31	Z31	X32	Y32	Z32	X33	Y33	Z33	X34	Y34	Z34	X35	Y35	Z35	X36	Y36	Z36	X37	Y37	Z37	X38	Y38	Z38	X39	Y39	Z39	X40	Y40	Z40	X41	Y41	Z41	X42	Y42	Z42	X43	Y43	Z43	X44	Y44	Z44	X45	Y45	Z45	X46	Y46	Z46	X47	Y47	Z47	X48	Y48	Z48	X49	Y49	Z49	X50	Y50	Z50	
1250	6.2500	517.272338	1242.440931	-124.988732	513.887590	1205.052145	-438.706880	501.809210	1270.754577	-281.154725	447.073056	1138.901280	-275.107200	500.929940	1020.105858	0.010672	699.629290	877.429952	-50.117483	454.085224	949.559572	-531.928616	683.162989	886.606497	-445.368710	1.736803	1132.322606	-228.402516	114.469794	1142.752264	-393.804319	149.412254	1127.378487	-86.421315	166.665959	1092.216559	-370.044795	192.461340	1078.677645	-114.769127	35.802406	1159.338719	-171.010356	23.029718	1172.404168	-276.024349	121.154778	976.642800	-52.633886	110.624719	1044.323653	-433.646728	196.860449	859.681373	-59.731073	258.336030	796.782927	-63.521903	275.384791	710.310463	-76.421019	288.126301	812.238740	-77.967100	309.531009	619.557308	-107.240680	297.464611	600.379289	-204.427377	257.872155	535.024078	-73.844087	249.703314	446.271052	-84.870452	199.494940	374.536728	-82.182069	275.046652	439.786984	-114.589498	160.277326	279.521537	-78.378269	162.657857	286.406421	-155.519736	77.901562	276.463601	-118.441108	306.230684	141.476237	-129.534418	229.098994	166.858792	-62.113000	243.016359	1000.240209	-420.102446	326.827945	998.469330	-404.956869	335.216511	1029.362631	-384.259838	405.246759	952.663308	-404.672478	488.636167	893.799423	-385.959687	494.613842	874.854092	-282.656860	298.728125	576.030689	-412.269796	312.088799	581.712892	-337.704316	216.921950	551.861185	-374.714006	375.022989	476.331704	-432.849940	440.791010	809.676333	-410.832623	415.108058	726.306617	-407.142090	349.775939	665.916354	-411.099015	437.312220	713.221603	-377.151935	467.424948	475.360990	-363.498924	-65.180346	851.272390	-240.821488	21.142978	84.073980	-442.357115	21.119285	84.066256	-43.993469	
1251	6.2550	516.461940	1241.927031	-124.532652	514.801117	1205.064952	-438.038070	502.097913	1270.561355	-280.025584	446.701878	1138.971900	-274.573523	500.688625	1019.552246	0.280331	699.341006	877.394889	-49.794323	453.381839	950.246261	-532.497989	682.457384	887.094095	-445.402463	1.763936	1133.488398	-229.683588	114.816332	1143.837338	-394.593670	149.009702	1128.422283	-87.050918	166.767047	1092.986212	-370.886436	192.078430	1079.416302	-115.157667	35.651943	1160.461207	-172.108597	22.779680	1173.379613	-276.874345	121.318654	978.017504	-52.966233	110.932954	1044.689935	-434.119138	198.877300	861.630258	-60.445663	261.247378	799.659986	-64.483034	279.518301	713.513440	-77.527047	290.887582	815.562328	-78.958345	314.297722	622.380864	-107.741662	300.712983	603.592528	-205.221280	260.117167	539.003036	-74.482277	249.201546	450.529509	-85.401597	196.888480	380.346002	-82.458773	274.049253	443.417840	-115.348670	154.843333	286.011863	-78.293930	157.223746	293.104503	-155.691815	72.225265	285.248286	-118.531421	297.056899	144.406627	-129.429056	220.555656	171.928204	-62.113478	243.009621	997.667565	-420.528677	326.744998	994.771481	-405.393302	335.533354	1026.348738	-385.707679	404.523772	947.821611	-404.766850	487.625682	888.353395	-385.418947	494.665742	869.330951	-283.866859	302.720453	566.701000	-412.343443	315.542647	572.924309	-337.483817	221.200507	539.742149	-375.731697	382.630287	470.946445	-433.160963	440.447060	802.766857	-410.491902	416.250092	718.897788	-406.840414	351.994973	657.441813	-411.151780	438.488908	706.475511	-376.730037	475.005636	474.238714	-363.719630	-65.168682	851.278519	-240.782111	21.133191	84.076250	-442.361978	21.148539	84.062276	-43.988479	
1252	6.2600	515.646608	1241.532460	-123.597219	515.419246	1204.985692	-436.596321	502.334528	1270.552856	-278.657924	445.860979	1139.414854	-273.749685	500.395736	1018.960885	0.649222	699.066577	877.286250	-49.371856	452.848591	951.206691	-532.871196	681.798414	887.485759	-445.345432	1.807889	1134.478769	-230.966939	115.321063	1144.718673	-395.441348	148.701286	1129.189371	-87.612830	166.975261	1093.609846	-371.794802	191.809232	1080.223294	-115.500875	35.431671	1161.412811	-173.312711	21.038744	1174.702825	-277.224763	121.320475	979.331032	-53.671763	111.120492	1044.487179	-434.454062	201.123003	863.833088	-61.310679	264.516533	802.741289	-65.575212	284.247198	716.889782	-78.368887	293.780222	819.445571	-80.415579	319.284271	625.147005	-108.570251	304.094600	607.154268	-206.075110	262.671260	543.086091	-75.021710	248.958976	455.034138	-85.854847	194.522167	386.524458	-82.645870	273.467748	447.257266	-115.961014	149.702813	293.572507	-78.165382	152.397385	300.157368	-155.828160	67.038638	294.302319	-118.649987	288.207251	147.986804	-129.194231	212.404031	177.443365	-62.074024	242.856259	994.349988	-421.122904	326.533447	990.242509	-405.973271	335.828707	1021.897920	-386.695526	403.527228	941.910358	-405.158777	487.415003	882.013232	-384.387426	493.500382	862.964020	-284.169703	306.415684	556.553434	-412.251522	318.574271	563.486501	-337.289173	225.531586	526.133736	-375.682483	389.808805	464.880620	-433.454655	439.966918	794.918015	-410.756401	417.113342	710.510634	-406.675942	353.894062	648.140855	-411.204959	439.223986	698.620704	-376.369811	481.930320	472.653697	-363.941868	-65.181618	851.270864	-240.737760	21.132695	84.076321	-442.350412	21.178230	84.073121	-43.965856	
1253	6.2650	514.761117	1241.108670	-122.513992	516.306990	1205.265285	-435.786871	502.606419	1270.620601	-277.089144	445.307486	1139.829763	-272.912090	499.990179	1018.193841	1.063044	698.763159	877.245532	-48.954546	452.395534	951.957014	-533.031433	681.301145	887.855600	-445.219833	1.843276	1135.231191	-232.266409	115.711955	1145.447151	-396.187781	148.306929	1129.798423	-88.490514	167.250113	1094.043724	-372.730089	191.589283	1080.689627	-115.882641	35.294946	1162.012836	-174.412080	25.738901	1175.021750	-279.770177	121.583367	980.629888	-54.304373	111.250303	1043.687012	-434.620576	203.632157	866.106067	-61.941954	268.114129	806.198326	-66.638291	289.004832	720.691819	-79.194286	296.914377	823.109069	-82.021196	324.447707	628.322783	-109.413164	307.363388	610.856122	-207.416956	265.432822	547.444333	-75.430205	249.002778	459.856670	-86.251530	192.500914	392.992135	-82.830217	273.140354	451.316769	-116.412791	145.005065	301.134735	-78.149901	147.921554	307.538072	-155.927419	62.268075	303.930603	-118.725487	279.587192	152.091369	-129.069644	204.538290	183.524481	-61.954776	242.578591	990.284387	-421.874728	326.183707	984.934690	-406.739588	336.040358	1016.615572	-387.845160	402.378337	935.317438	-405.394712	484.424689	873.367377	-385.220371	491.882121	855.205230	-284.534982	309.703989	545.554498	-412.098947	322.356513	553.296123	-336.114919	229.232629	512.168251	-375.752448	396.320812	458.302586	-434.029963	439.176071	786.062516	-411.106914	417.661953	701.334187	-406.701506	355.460480	638.017815	-411.257713	439.735530	690.007239	-375.921309	488.251443	470.204805	-364.184572	-65.186371	851.278998	-240.701846	21.138515	84.077887	-442.353128	21.237800	84.042043	-43.928886	
1254	6.2700	513.878132	1240.670528	-121.238165	517.251817	1205.613278	-434.902828	502.824294	1270.760338	-275.421524	444.867319	1140.250583	-272.050359	499.429843	1017.523855	1.566457	698.414717	877.192632	-48.469471	452.116184	952.907367	-532.846905	680.903557	888.296695	-444.914152	1.783594	1135.869023	-233.493728	116.338292	1145.985168	-397.173249	148.052436	1130.200708	-89.246659	167.616899	1094.290226	-373.888849	191.328572	1081.032744	-116.454190	35.084712	1162.603897	-175.535691	25.842061	1175.618907	-280.897240	122.015235	981.734914	-54.900263	111.298454	1042.396717	-434.682314	206.395285	868.418261	-62.783688	272.006095	809.705405	-67.845426	294.365693	724.464685	-79.849633	300.182420	827.047732	-83.787082	329.840152	631.500382	-110.064351	311.887854	614.227589	-207.077008	268.361732	551.914823	-75.724789	249.528183	464.949689	-86.362912	190.801723	399.763405	-82.957004	272.140100	455.265604	-118.286231	140.780635	309.104005	-78.121502	144.088501	315.371208	-155.980820	58.001419	313.841693	-118.829529	271.424305	156.639961	-128.827547	197.137269	190.033062	-61.860961	242.037512	985.289047	-422.229733	325.630312	978.945989	-407.633516	336.152297	1010.665802	-389.220485	400.957575	927.953880	-405.942738	481.999534	864.778753	-385.417044	489.661324	847.814569	-284.607274	312.858909	533.914999	-412.254663	325.055208	542.216141	-336.042732	232.726789	497.542161	-376.211607	402.661431	450.720278	-434.353587	438.204867	776.510202	-411.558927	417.986867	691.377036	-406.868575	356.777047	627.211168	-411.400839	440.122472	680.466839	-375.470135	494.060801	467.040287	-364.646309	-65.159855	851.260418	-240.657417	21.135272	84.052163	-442.338151	21.257816	84.064563	-43.926115	
